<svg xmlns="http://www.w3.org/2000/svg" height="24" viewBox="0 -960 960 960" width="24"><path d="M479-46q-89.524 0-168.262-34T173-173q-59-59-93-138.083-34-79.084-34-169Q46-570 80-649t93-138q59-59 138.083-93 79.084-34 169-34Q570-914 649-880t138 93q59 59 93 137.738T914-481v58q0 65.648-48.5 111.824T749-265q-38.247 0-72.124-16Q643-297 622-329q-25 33-62.5 48.5T480-265q-90 0-152.5-62.5T265-480q0-90 62.5-152.5T480-695q90 0 152.5 62.5T695-480v49q0 23.484 16 39.742Q727-375 749.977-375q22.976 0 38-16.258Q803-407.516 803-431v-50q0-134-94.5-228T480-803q-134 0-228.5 94.5T157-480q0 134 94 228.5T479-157h146q23.375 0 39.188 15.812Q680-125.375 680-102q0 23-15.812 39.5Q648.375-46 625-46H479Zm1.176-329Q524-375 554.5-405.676q30.5-30.677 30.5-74.5Q585-524 554.323-554.5 523.647-585 479.824-585 436-585 405.5-554.323 375-523.647 375-479.824 375-436 405.676-405.5q30.677 30.5 74.5 30.5Z"/></svg>